# xmcd CD database file
#
# Track frame offsets:
#	150
#	16954
#	35994
#	55945
#	69390
#	84340
#	101982
#	124124
#	140216
#	158314
#	173840
#	193184
#	205699
#	220217
#
# Disc length: 3025 seconds
#
# Revision: 0
# Processed by: cddbd v1.5.1PL0 Copyright (c) Steve Scherf et al.
# Submitted via: CDex 1.51
#
DISCID=c90bcf0e
DTITLE=Guillermo Anderson - Llevarte al Mar
DYEAR=2005
DGENRE=Jazz
TTITLE0=El Encarguito 
TTITLE1=Por esa negra 
TTITLE2=Aves
TTITLE3=Costa y calor
TTITLE4=Así te quiero 
TTITLE5=Celebración
TTITLE6=Pobre Marinero 
TTITLE7=Llanto, risa y paz 
TTITLE8=Santo negro (A dúo Con Aurelio Martinez)
TTITLE9=Llevarte al mar
TTITLE10=Cuando llega el carnaval (Coros: La Mala Polilla)
TTITLE11=María Dolores
TTITLE12=Malena
TTITLE13=El Cielo Me Dice Cosas
EXTD=YEAR: 2005
EXTT0=
EXTT1=
EXTT2=
EXTT3=
EXTT4=
EXTT5=
EXTT6=
EXTT7=
EXTT8=
EXTT9=
EXTT10=
EXTT11=
EXTT12=
EXTT13=
PLAYORDER=
